<svg id="Layer_1" data-name="Layer 1" xmlns="http://www.w3.org/2000/svg" viewBox="0 0 35.77 36.06">
  <defs>
    <style>
      .cls-1 {
        fill: #7ca2d5;
      }

      .cls-2 {
        fill: none;
        stroke: #fff;
        stroke-miterlimit: 10;
        stroke-width: 1.19px;
      }
    </style>
  </defs>
  <title>1_</title>
  <g>
    <g id="Layer_1-2" data-name="Layer 1">
      <ellipse class="cls-1" cx="17.89" cy="18.03" rx="17.89" ry="18.03"/>
    </g>
    <g>
      <path class="cls-2" d="M11.46,28.75A4.28,4.28,0,0,0,15,26.85a3.43,3.43,0,0,1,5.73,0,4.29,4.29,0,1,0,6-6,3.43,3.43,0,0,1,0-5.73,4.29,4.29,0,1,0-6-6,3.43,3.43,0,0,1-5.73,0,4.29,4.29,0,1,0-6,6,3.43,3.43,0,0,1,0,5.73,4.29,4.29,0,0,0,2.39,7.86Z"/>
      <path class="cls-2" d="M21.93,20.34l-1.7,1.72a3.31,3.31,0,0,1-4.68,0l-1.72-1.7a3.31,3.31,0,0,1,0-4.68L15.53,14a3.31,3.31,0,0,1,4.68,0l1.72,1.7A3.31,3.31,0,0,1,21.93,20.34Z"/>
    </g>
  </g>
</svg>
